<?xml version="1.0" standalone="no"?>
<!DOCTYPE svg PUBLIC "-//W3C//DTD SVG 20010904//EN"
 "http://www.w3.org/TR/2001/REC-SVG-20010904/DTD/svg10.dtd">
<svg version="1.0" xmlns="http://www.w3.org/2000/svg"
 width="48.000000pt" height="58.000000pt" viewBox="0 0 48.000000 58.000000"
 preserveAspectRatio="xMidYMid meet">

<g transform="translate(0.000000,58.000000) scale(0.100000,-0.100000)"
fill="#000000" stroke="none">
<path d="M110 401 c0 -6 4 -11 8 -11 5 0 13 -37 19 -82 13 -100 22 -108 114
-108 90 0 107 15 115 98 l7 62 -111 0 c-107 0 -111 1 -114 22 -3 23 -38 39
-38 19z m235 -108 c-10 -68 -17 -73 -96 -73 -65 0 -70 2 -79 26 -6 14 -10 41
-10 60 l0 34 96 0 96 0 -7 -47z"/>
<path d="M183 164 c-7 -18 17 -38 31 -24 11 11 1 40 -14 40 -6 0 -13 -7 -17
-16z"/>
<path d="M283 164 c-8 -20 17 -36 34 -22 10 8 10 14 2 24 -15 18 -28 18 -36
-2z"/>
</g>
</svg>
